<svg width="229" height="141" viewBox="0 0 229 141" fill="none" xmlns="http://www.w3.org/2000/svg">
<path d="M18.5364 110.388C18.5112 110.64 18.4193 110.86 18.2606 111.047C18.0905 111.22 17.8619 111.343 17.5747 111.415L5.82888 113.927C5.68653 113.95 5.57757 113.958 5.50198 113.95C5.26137 113.937 5.07303 113.847 4.93697 113.68C4.78957 113.499 4.72847 113.283 4.75365 113.031C4.7738 112.829 4.85441 112.659 4.9955 112.521C5.13659 112.383 5.31106 112.293 5.51891 112.251L16.267 110.169L6.19323 105.884C5.98536 105.798 5.82726 105.661 5.71891 105.471C5.59923 105.268 5.55072 105.052 5.57338 104.826C5.59605 104.599 5.68548 104.404 5.84168 104.242C5.98655 104.067 6.16921 103.958 6.38966 103.918L17.1018 101.813L6.98839 97.5425C6.79312 97.4583 6.64006 97.334 6.52919 97.1696C6.41833 97.0051 6.37297 96.822 6.39312 96.6204C6.4183 96.3683 6.52033 96.1752 6.69921 96.0412C6.86675 95.8932 7.06957 95.838 7.30766 95.8757C7.38325 95.8837 7.48844 95.9138 7.62323 95.9662L18.6286 100.865C18.8957 100.995 19.0947 101.169 19.2257 101.386C19.3454 101.59 19.3927 101.818 19.3675 102.07C19.3423 102.322 19.2434 102.547 19.0709 102.746C18.8869 102.93 18.6652 103.047 18.4057 103.096L8.46452 105.129L17.7975 109.184C18.0419 109.286 18.2353 109.453 18.3777 109.684C18.5087 109.901 18.5616 110.136 18.5364 110.388Z" fill="#E5E7EB"/>
<path d="M20.8821 93.7931C20.8197 94.0256 20.688 94.199 20.4869 94.3135C20.2857 94.4279 20.0693 94.4525 19.8377 94.3873L7.96788 91.0464C7.73621 90.9812 7.56244 90.8468 7.44656 90.6431C7.3185 90.436 7.28561 90.2163 7.34792 89.9838C7.41023 89.7513 7.54805 89.5796 7.76138 89.4686C7.9658 89.3419 8.18384 89.3112 8.41551 89.3764L13.189 90.72C12.8015 90.1109 12.5275 89.4943 12.367 88.8702C12.2065 88.246 12.2246 87.5669 12.4213 86.8329C12.6017 86.1599 12.916 85.6234 13.3642 85.2232C13.8156 84.8108 14.3501 84.5534 14.9677 84.4509C15.5885 84.3362 16.2281 84.3714 16.8866 84.5568L22.0807 86.0187C22.3124 86.0839 22.4845 86.2245 22.5971 86.4404C22.713 86.644 22.7398 86.8621 22.6775 87.0946C22.6152 87.327 22.4835 87.5005 22.2823 87.6149C22.0812 87.7294 21.8648 87.754 21.6331 87.6888L16.6218 86.2783C15.1343 85.8596 14.2102 86.3232 13.8494 87.669C13.6855 88.2808 13.6964 88.8759 13.8822 89.4546C14.0714 90.0209 14.3768 90.5937 14.7985 91.173L20.2853 92.7173C20.517 92.7825 20.6891 92.923 20.8017 93.1389C20.9176 93.3426 20.9444 93.5607 20.8821 93.7931Z" fill="#E5E7EB"/>
<path d="M25.6219 79.1288C25.0486 80.5639 24.1969 81.5182 23.0667 81.9918C21.9295 82.4487 20.6251 82.3684 19.1533 81.751C18.324 81.4032 17.62 80.9293 17.0413 80.3295C16.4627 79.7297 16.0841 79.0215 15.9057 78.205C15.7272 77.3885 15.8236 76.5157 16.1948 75.5864C16.5426 74.7159 17.0477 74.0489 17.7103 73.5852C18.3611 73.1166 19.0911 72.8597 19.9002 72.8145C20.6975 72.7644 21.4933 72.906 22.2876 73.2392C22.5096 73.3323 22.6659 73.4871 22.7567 73.7037C22.8521 73.9086 22.8505 74.1345 22.7518 74.3815L20.3624 80.363C21.2177 80.6118 21.9764 80.573 22.6387 80.2466C23.301 79.9201 23.8178 79.2922 24.189 78.363C24.3864 77.8689 24.5111 77.42 24.5634 77.0161C24.6203 76.6005 24.6316 76.1795 24.5974 75.7531C24.5882 75.6394 24.6072 75.5238 24.6542 75.4061C24.7293 75.2179 24.8594 75.0802 25.0443 74.993C25.2291 74.9057 25.4208 74.9037 25.6194 74.987C25.8764 75.0948 26.0314 75.3384 26.0844 75.7177C26.1581 76.2843 26.17 76.818 26.1199 77.3189C26.0698 77.8197 25.9038 78.4231 25.6219 79.1288ZM21.1452 74.614C20.5587 74.4092 20.0187 74.3612 19.5252 74.4701C19.0364 74.5672 18.6268 74.7731 18.2965 75.0877C17.9546 75.3975 17.7037 75.7524 17.544 76.1523C17.3842 76.5523 17.3202 76.9855 17.352 77.4521C17.3722 77.9138 17.5233 78.3548 17.8054 78.7753C18.0875 79.1958 18.5076 79.5437 19.0659 79.8191L21.1452 74.614Z" fill="#E5E7EB"/>
<path d="M28.6135 72.1468C28.5037 72.361 28.3387 72.5023 28.1186 72.5707C27.8984 72.6392 27.6824 72.6163 27.4705 72.5022L20.294 68.6375C20.0821 68.5234 19.9413 68.354 19.8714 68.1294C19.7904 67.8988 19.8048 67.6764 19.9147 67.4623C20.0245 67.2481 20.195 67.1098 20.4263 67.0474C20.6522 66.9677 20.8711 66.9849 21.083 67.099L21.8023 67.4864C21.1586 66.1328 21.0882 64.9658 21.5911 63.9852L21.6344 63.9007C21.7443 63.6865 21.9063 63.5509 22.1207 63.4937C22.3408 63.4253 22.5568 63.4481 22.7687 63.5622C22.9806 63.6763 23.1159 63.8427 23.1746 64.0613C23.2333 64.2799 23.2048 64.5019 23.0892 64.7273L23.0459 64.8118C22.7684 65.3528 22.6479 65.9208 22.6844 66.5158C22.7097 67.1048 22.8729 67.6745 23.1741 68.2251L28.2595 70.9637C28.4714 71.0778 28.6094 71.2528 28.6735 71.4887C28.7433 71.7133 28.7233 71.9327 28.6135 72.1468Z" fill="#E5E7EB"/>
<path d="M33.9485 62.8806C33.1179 64.1837 32.1046 64.9608 30.9085 65.2117C29.7087 65.4449 28.4456 65.1177 27.1193 64.23C26.3719 63.7298 25.7709 63.1295 25.3163 62.429C24.8617 61.7286 24.6235 60.9597 24.6016 60.1222C24.5797 59.2847 24.8377 58.444 25.3755 57.6002C25.8793 56.8097 26.4992 56.2494 27.2353 55.9192C27.9608 55.5819 28.7241 55.468 29.5253 55.5775C30.3159 55.68 31.0692 55.9708 31.785 56.4499C31.985 56.5837 32.1092 56.7659 32.1575 56.9963C32.2127 57.2161 32.1688 57.4381 32.0258 57.6624L28.564 63.0941C29.3554 63.5018 30.1061 63.608 30.8162 63.4128C31.5262 63.2175 32.1502 62.698 32.688 61.8541C32.9739 61.4055 33.1803 60.9875 33.3071 60.6C33.4408 60.2018 33.5308 59.7896 33.5771 59.3635C33.5894 59.2499 33.6297 59.1397 33.6977 59.0328C33.8067 58.8619 33.9599 58.7511 34.1574 58.7004C34.3548 58.6498 34.5431 58.6843 34.722 58.8041C34.9536 58.9591 35.0598 59.2283 35.0407 59.6117C35.0068 60.1832 34.9184 60.7107 34.7755 61.1941C34.6326 61.6775 34.3569 62.2397 33.9485 62.8806ZM30.408 57.5854C29.8718 57.2723 29.3517 57.1223 28.8477 57.1355C28.3506 57.138 27.9107 57.2626 27.5282 57.5095C27.1351 57.7492 26.8228 58.0507 26.5913 58.4139C26.3599 58.7771 26.216 59.1913 26.1598 59.6565C26.093 60.1147 26.1585 60.5775 26.3561 61.045C26.5537 61.5125 26.9002 61.9348 27.3956 62.3121L30.408 57.5854Z" fill="#E5E7EB"/>
<path d="M41.4597 52.2145C41.2977 52.3925 41.1017 52.4855 40.8719 52.4935C40.642 52.5015 40.4401 52.4224 40.2661 52.2561L31.9281 44.2881C31.7542 44.1219 31.663 43.9209 31.6548 43.6854C31.6375 43.4411 31.7098 43.2299 31.8717 43.0519L36.9998 37.417C37.1532 37.2484 37.3406 37.1648 37.562 37.1661C37.7827 37.1493 37.9755 37.2197 38.1403 37.3772C38.3052 37.5348 38.3871 37.7269 38.3862 37.9537C38.3938 38.1712 38.3208 38.3642 38.1674 38.5328L33.6276 43.5213L36.6633 46.4224L40.7427 41.9397C40.8962 41.7711 41.0836 41.6875 41.3049 41.6888C41.5256 41.672 41.7184 41.7424 41.8833 41.8999C42.0481 42.0575 42.13 42.2496 42.1291 42.4764C42.1367 42.6939 42.0638 42.8869 41.9103 43.0555L37.8309 47.5382L40.8803 50.4523L45.4201 45.4638C45.5736 45.2952 45.761 45.2115 45.9823 45.2129C46.2031 45.1961 46.3958 45.2665 46.5607 45.424C46.7255 45.5815 46.8075 45.7737 46.8065 46.0005C46.8141 46.2179 46.7412 46.411 46.5877 46.5796L41.4597 52.2145Z" fill="#E5E7EB"/>
<path d="M51.6031 42.0674C51.4314 42.2174 51.2335 42.3062 51.0094 42.3338C50.7772 42.3517 50.5629 42.3119 50.3665 42.2144L42.8221 38.3127C42.6771 38.2375 42.5682 38.156 42.4953 38.0684C42.3414 37.8834 42.2738 37.6734 42.2926 37.4385C42.3032 37.1938 42.3991 36.9923 42.5804 36.834C42.7044 36.7257 42.8513 36.6646 43.021 36.6509C43.1922 36.6191 43.3462 36.6359 43.483 36.7013L50.3867 40.4565L47.8618 32.8766C47.8204 32.7278 47.8238 32.5735 47.872 32.4137C47.9217 32.2358 48.0086 32.0927 48.1326 31.9843C48.3138 31.826 48.5232 31.7608 48.7606 31.7889C48.9899 31.8071 49.1815 31.9088 49.3354 32.0938C49.4083 32.1814 49.4695 32.3045 49.519 32.463L52.0837 40.7145C52.1465 40.9286 52.1509 41.1518 52.0969 41.3839C52.0348 41.6062 51.9179 41.7924 51.7462 41.9424L51.6031 42.0674Z" fill="#E5E7EB"/>
<path d="M60.3747 35.2982C59.1067 36.1816 57.8726 36.5089 56.6723 36.2801C55.4754 36.0336 54.4358 35.2454 53.5535 33.9154C53.0563 33.166 52.7328 32.3805 52.5829 31.559C52.433 30.7374 52.5091 29.9359 52.8112 29.1543C53.1134 28.3728 53.675 27.6961 54.4961 27.1241C55.2652 26.5883 56.0529 26.3096 56.8592 26.2881C57.6586 26.256 58.4068 26.4447 59.1039 26.8541C59.7941 27.253 60.3772 27.8114 60.8534 28.5291C60.9864 28.7297 61.0309 28.9456 60.9868 29.177C60.9531 29.4011 60.8272 29.5891 60.6089 29.7412L55.3239 33.4229C55.8972 34.1038 56.549 34.4909 57.2794 34.5839C58.0098 34.677 58.7856 34.4376 59.6067 33.8656C60.0432 33.5615 60.3945 33.255 60.6607 32.9461C60.9373 32.63 61.1789 32.2841 61.3857 31.9086C61.4408 31.8084 61.5204 31.7222 61.6243 31.6498C61.7906 31.5339 61.9746 31.4906 62.1764 31.5198C62.3781 31.549 62.5385 31.6534 62.6575 31.8328C62.8116 32.065 62.806 32.3544 62.6408 32.701C62.3895 33.2156 62.1049 33.6685 61.787 34.0597C61.4691 34.451 60.9983 34.8638 60.3747 35.2982ZM59.1457 29.0474C58.7714 28.5519 58.3492 28.2133 57.8791 28.0315C57.4193 27.8425 56.9655 27.7883 56.5174 27.8689C56.0624 27.9389 55.6582 28.097 55.3049 28.3432C54.9515 28.5894 54.6593 28.9164 54.4284 29.3242C54.1904 29.7214 54.0727 30.1739 54.0751 30.6815C54.0775 31.1891 54.2347 31.7124 54.5466 32.2513L59.1457 29.0474Z" fill="#E5E7EB"/>
<path d="M66.6112 31.1771C66.4015 31.2952 66.186 31.322 65.9647 31.2577C65.7434 31.1933 65.5759 31.0551 65.4622 30.843L61.6112 23.6591C61.4975 23.447 61.4735 23.2279 61.5392 23.002C61.5989 22.765 61.7336 22.5874 61.9433 22.4694C62.153 22.3513 62.3715 22.33 62.5988 22.4055C62.8311 22.4637 63.0042 22.5988 63.1179 22.8109L63.5039 23.531C63.714 22.0466 64.2992 21.0342 65.2595 20.4936L65.3423 20.447C65.552 20.329 65.762 20.3052 65.9722 20.3758C66.1935 20.4401 66.361 20.5784 66.4747 20.7905C66.5884 21.0026 66.6095 21.216 66.5378 21.4308C66.4661 21.6455 66.3199 21.815 66.0991 21.9393L66.0163 21.9859C65.4865 22.2841 65.0727 22.6915 64.7748 23.2079C64.4709 23.7133 64.2926 24.2786 64.24 24.9041L66.9689 29.9948C67.0826 30.2069 67.1011 30.429 67.0244 30.6612C66.9587 30.8871 66.821 31.059 66.6112 31.1771Z" fill="#E5E7EB"/>
<path d="M76.0606 31.1254C75.8523 31.2182 75.6408 31.2224 75.4261 31.1378C75.2229 31.0482 75.0768 30.8984 74.9876 30.6885C74.948 30.5953 74.9258 30.4942 74.9209 30.3855L74.8088 26.9619L68.1456 20.4065C68.0498 20.3106 67.9796 20.2101 67.9351 20.1052C67.841 19.8837 67.837 19.6636 67.9231 19.445C68.0042 19.2147 68.1546 19.0505 68.3744 18.9525C68.5364 18.8803 68.7008 18.8625 68.8677 18.899C69.0461 18.9304 69.1939 19.0032 69.3112 19.1173L74.8201 24.6066L74.7229 16.7461C74.7248 16.3292 74.8935 16.046 75.229 15.8965C75.4488 15.7985 75.6686 15.7975 75.8883 15.8937C76.103 15.9782 76.2574 16.1313 76.3515 16.3528C76.396 16.4577 76.4208 16.5646 76.4256 16.6733L76.5592 30.2582C76.5507 30.6919 76.3845 30.9809 76.0606 31.1254Z" fill="#E5E7EB"/>
<path d="M91.0867 21.2302C89.5279 21.6277 87.9956 21.7049 86.4897 21.4615C86.3275 21.4376 86.1808 21.3704 86.0497 21.2601C85.9157 21.1374 85.8292 20.9961 85.7903 20.836C85.7395 20.6268 85.7636 20.4311 85.8628 20.249C85.9712 20.0514 86.1359 19.9244 86.3568 19.8681C86.4795 19.8368 86.6021 19.8316 86.7245 19.8527C87.9763 20.0693 89.2465 20.0133 90.5353 19.6846C92.6832 19.1367 93.5852 18.155 93.2414 16.7395C93.1517 16.3703 92.9358 16.0986 92.5937 15.9244C92.2639 15.7471 91.88 15.6424 91.4421 15.6103C91.0012 15.5659 90.3825 15.5407 89.5859 15.5348C88.529 15.5298 87.6653 15.4887 86.9948 15.4114C86.3213 15.3217 85.7053 15.0933 85.1469 14.7259C84.5884 14.3586 84.212 13.7749 84.0177 12.9748C83.8473 12.2732 83.8774 11.5923 84.1081 10.9322C84.3358 10.2598 84.7652 9.66662 85.3963 9.1527C86.0368 8.62335 86.8602 8.23032 87.8667 7.97361C89.2168 7.62924 90.4873 7.52084 91.6784 7.64841C92.0519 7.68384 92.2835 7.88618 92.3732 8.25545C92.4211 8.45239 92.3969 8.64808 92.3008 8.84253C92.2046 9.03698 92.0461 9.16239 91.8252 9.21874C91.7515 9.23752 91.6474 9.23795 91.5127 9.22002C90.4746 9.13187 89.4462 9.21772 88.4275 9.47756C87.4579 9.72488 86.7111 10.1114 86.1871 10.6372C85.6753 11.1599 85.5002 11.7536 85.6617 12.4182C85.7693 12.8613 85.9986 13.1885 86.3497 13.3995C86.71 13.5952 87.1244 13.7183 87.5929 13.7687C88.0706 13.8037 88.7048 13.8119 89.4953 13.7932C90.5217 13.7798 91.3579 13.8149 92.0039 13.8985C92.6621 13.9789 93.2596 14.2121 93.7965 14.598C94.3457 14.9808 94.7219 15.5907 94.9253 16.4277C95.0927 17.117 95.0473 17.7887 94.7891 18.4427C94.5279 19.0845 94.0787 19.65 93.4416 20.1393C92.8044 20.6286 92.0195 20.9922 91.0867 21.2302Z" fill="#E5E7EB"/>
<path d="M97.0308 7.8849C96.7683 7.92796 96.5287 7.871 96.3119 7.71402C96.095 7.55705 95.9661 7.34716 95.9251 7.08435L95.9133 7.00926C95.8723 6.74644 95.9309 6.5058 96.089 6.28732C96.2472 6.06885 96.4575 5.93808 96.72 5.89503L96.8325 5.87658C97.095 5.83353 97.3347 5.89048 97.5515 6.04746C97.7683 6.20443 97.8972 6.41432 97.9383 6.67714L97.95 6.75223C97.9911 7.01504 97.9325 7.25568 97.7743 7.47416C97.6162 7.69264 97.4058 7.8234 97.1433 7.86645L97.0308 7.8849ZM98.8833 19.4989C98.6458 19.5378 98.4331 19.4893 98.2452 19.3532C98.0573 19.2172 97.9447 19.0303 97.9076 18.7925L96.6498 10.7391C96.6126 10.5014 96.6626 10.2878 96.7997 10.0984C96.9348 9.89658 97.1211 9.77617 97.3586 9.73722C97.6086 9.69622 97.8275 9.74374 98.0155 9.87978C98.2034 10.0158 98.3169 10.209 98.356 10.4593L99.6138 18.5127C99.651 18.7504 99.5947 18.965 99.4451 19.1564C99.3081 19.3458 99.1208 19.4599 98.8833 19.4989Z" fill="#E5E7EB"/>
<path d="M103.989 23.1175C103.749 23.1352 103.541 23.0617 103.364 22.8969C103.188 22.7447 103.092 22.5486 103.075 22.3085L102.199 9.81827C102.182 9.57819 102.25 9.36997 102.402 9.1936C102.555 9.01723 102.751 8.92021 102.991 8.90252C103.231 8.88482 103.439 8.95206 103.615 9.10422C103.804 9.25544 103.906 9.4511 103.923 9.69117L103.958 10.184C104.812 9.15569 105.859 8.59593 107.097 8.50468C107.88 8.44695 108.633 8.59465 109.356 8.94778C110.091 9.28734 110.7 9.82668 111.184 10.5658C111.679 11.2913 111.963 12.1659 112.035 13.1893C112.107 14.2128 111.949 15.1262 111.56 15.9296C111.184 16.7194 110.657 17.3425 109.977 17.799C109.31 18.2419 108.585 18.4922 107.802 18.55C106.564 18.6412 105.45 18.2407 104.46 17.3483L104.8 22.1814C104.817 22.4342 104.75 22.6487 104.597 22.8251C104.445 23.0014 104.242 23.0989 103.989 23.1175ZM107.442 16.9571C108.377 16.8882 109.108 16.5359 109.635 15.9001C110.161 15.2643 110.387 14.4031 110.31 13.3164C110.234 12.2298 109.891 11.4105 109.281 10.8585C108.671 10.3065 107.898 10.065 106.963 10.1339C106.382 10.1767 105.842 10.3499 105.343 10.6534C104.855 10.9434 104.431 11.3176 104.069 11.776L104.349 15.7563C104.77 16.157 105.243 16.4714 105.767 16.6995C106.303 16.9141 106.861 16.9999 107.442 16.9571Z" fill="#E5E7EB"/>
<path d="M121.191 18.4341C120.951 18.4104 120.758 18.3084 120.609 18.1283C120.461 17.9481 120.398 17.7382 120.421 17.4986L121.513 5.92205C121.536 5.68245 121.637 5.48881 121.816 5.34111C121.997 5.18081 122.207 5.11253 122.446 5.13627L129.801 5.86543C130.028 5.88792 130.21 5.98864 130.345 6.16757C130.495 6.33514 130.559 6.53242 130.538 6.75942C130.516 6.98641 130.416 7.16744 130.238 7.30252C130.073 7.43886 129.876 7.49577 129.65 7.47328L123.164 6.83035L122.77 11.0108L128.593 11.5881C128.82 11.6106 129.001 11.7113 129.137 11.8902C129.287 12.0578 129.351 12.2551 129.329 12.4821C129.308 12.7091 129.208 12.8901 129.03 13.0252C128.864 13.1615 128.668 13.2184 128.441 13.1959L122.618 12.6186L122.141 17.6692C122.118 17.9088 122.011 18.1018 121.819 18.2482C121.64 18.3959 121.43 18.4579 121.191 18.4341Z" fill="#E5E7EB"/>
<path d="M135.093 20.6052C133.583 20.277 132.489 19.5922 131.812 18.5508C131.15 17.4996 130.981 16.1925 131.304 14.6297C131.487 13.749 131.816 12.9715 132.292 12.2972C132.767 11.6229 133.387 11.1289 134.15 10.8152C134.914 10.5016 135.784 10.451 136.762 10.6635C137.678 10.8625 138.425 11.2517 139.004 11.8311C139.585 12.3981 139.975 13.079 140.172 13.8737C140.372 14.656 140.385 15.4689 140.211 16.3124C140.162 16.5481 140.04 16.729 139.846 16.8553C139.664 16.9843 139.443 17.0205 139.183 16.9641L132.889 15.5963C132.809 16.486 132.991 17.232 133.435 17.8341C133.88 18.4362 134.591 18.8435 135.569 19.056C136.089 19.169 136.551 19.2175 136.955 19.2017C137.371 19.1885 137.785 19.1293 138.195 19.0239C138.304 18.9958 138.42 18.9952 138.544 19.0221C138.742 19.0652 138.901 19.171 139.022 19.3398C139.142 19.5085 139.18 19.6983 139.137 19.9091C139.08 20.182 138.872 20.3765 138.511 20.4926C137.972 20.6606 137.453 20.7617 136.955 20.796C136.456 20.8302 135.836 20.7666 135.093 20.6052ZM138.651 15.4097C138.74 14.7938 138.684 14.2503 138.484 13.7791C138.297 13.3106 138.018 12.939 137.648 12.6641C137.281 12.3769 136.887 12.1876 136.466 12.0961C136.045 12.0046 135.61 12.0138 135.16 12.1235C134.713 12.2208 134.311 12.4445 133.954 12.7946C133.597 13.1448 133.337 13.6197 133.174 14.2194L138.651 15.4097Z" fill="#E5E7EB"/>
<path d="M145.573 23.605C144.111 23.105 143.101 22.298 142.545 21.1842C142.005 20.0624 141.982 18.7427 142.476 17.2251C142.754 16.37 143.167 15.6344 143.714 15.0183C144.261 14.4022 144.931 13.9821 145.723 13.7578C146.515 13.5335 147.385 13.5832 148.332 13.907C149.219 14.2103 149.917 14.6834 150.427 15.3263C150.941 15.9571 151.252 16.6792 151.36 17.4925C151.472 18.2938 151.394 19.1039 151.128 19.9229C151.053 20.1518 150.913 20.3178 150.706 20.4211C150.511 20.5285 150.288 20.5391 150.036 20.4531L143.941 18.3689C143.763 19.2447 143.861 20.0077 144.235 20.6578C144.609 21.3078 145.27 21.7948 146.217 22.1186C146.72 22.2907 147.173 22.3921 147.576 22.4229C147.991 22.4577 148.408 22.4462 148.826 22.3885C148.938 22.3731 149.054 22.3859 149.173 22.4269C149.365 22.4925 149.511 22.6161 149.612 22.7978C149.713 22.9795 149.73 23.1727 149.663 23.3774C149.577 23.6424 149.348 23.8119 148.978 23.886C148.424 23.9911 147.898 24.0321 147.399 24.0088C146.901 23.9855 146.292 23.8509 145.573 23.605ZM149.68 18.8457C149.837 18.2432 149.842 17.6961 149.695 17.2044C149.561 16.7168 149.326 16.315 148.989 15.9991C148.656 15.6711 148.286 15.4375 147.879 15.2981C147.471 15.1587 147.038 15.1178 146.58 15.1752C146.126 15.2206 145.702 15.397 145.309 15.7043C144.916 16.0115 144.605 16.4541 144.377 17.032L149.68 18.8457Z" fill="#E5E7EB"/>
<path d="M152.485 26.2366C152.265 26.1401 152.111 25.9829 152.023 25.7649C151.936 25.5469 151.939 25.3268 152.031 25.1046L156.774 13.7224C156.867 13.5002 157.02 13.3462 157.234 13.2602C157.454 13.1625 157.673 13.1619 157.894 13.2584C158.126 13.36 158.286 13.5197 158.373 13.7378C158.461 13.9558 158.456 14.1817 158.358 14.4155L153.615 25.7978C153.522 26.0199 153.363 26.1715 153.138 26.2524C152.923 26.3383 152.706 26.3331 152.485 26.2366Z" fill="#E5E7EB"/>
<path d="M158.848 29.4404C157.728 28.8482 156.837 28.0547 156.176 27.06C156.054 26.8236 156.053 26.5866 156.172 26.349C156.263 26.168 156.405 26.0422 156.596 25.9716C156.788 25.901 156.979 25.916 157.169 26.0167C157.27 26.07 157.359 26.146 157.437 26.2445C157.716 26.5924 158.011 26.9064 158.324 27.1864C158.637 27.4664 159.017 27.7249 159.465 27.9618C160.708 28.6191 161.532 28.5462 161.936 27.743C162.067 27.4829 162.021 27.2079 161.799 26.9182C161.587 26.6343 161.199 26.2358 160.635 25.7227C160.054 25.2149 159.588 24.7606 159.237 24.36C158.897 23.9652 158.656 23.5152 158.513 23.01C158.388 22.4994 158.467 21.9613 158.752 21.3957C159.151 20.6038 159.756 20.1071 160.566 19.9054C161.388 19.7097 162.325 19.8902 163.378 20.4469C164.24 20.9029 164.981 21.4737 165.599 22.1593C165.733 22.2874 165.808 22.4345 165.824 22.6004C165.851 22.7722 165.83 22.926 165.762 23.0617C165.671 23.2427 165.524 23.3656 165.321 23.4302C165.129 23.5008 164.938 23.4858 164.748 23.3851C164.692 23.3555 164.625 23.3057 164.547 23.2357C164 22.6886 163.413 22.2492 162.786 21.9175C162.181 21.5977 161.648 21.4591 161.187 21.5018C160.743 21.5391 160.433 21.733 160.256 22.0837C160.085 22.4231 160.117 22.7549 160.35 23.0791C160.584 23.4033 160.994 23.8137 161.581 24.3101C162.156 24.8293 162.608 25.2832 162.937 25.672C163.271 26.0495 163.496 26.4906 163.61 26.9953C163.736 27.5059 163.651 28.0553 163.354 28.6436C162.99 29.3676 162.402 29.8161 161.592 29.9892C160.792 30.1682 159.878 29.9853 158.848 29.4404Z" fill="#E5E7EB"/>
<path d="M169.775 36.0079C169.512 35.8097 169.351 35.5456 169.292 35.2156C169.25 34.8828 169.325 34.5827 169.517 34.3151L176.096 25.1449C176.236 24.9493 176.42 24.8342 176.648 24.7995C176.883 24.7545 177.096 24.8044 177.288 24.9492C177.481 25.094 177.591 25.288 177.619 25.5312C177.665 25.7717 177.617 25.9897 177.477 26.1853L171.208 34.9232L176.171 38.6616C176.363 38.8065 176.473 39.0004 176.501 39.2436C176.547 39.4841 176.5 39.7021 176.359 39.8977C176.219 40.0932 176.03 40.2046 175.792 40.2316C175.565 40.2664 175.355 40.2113 175.163 40.0665L169.775 36.0079Z" fill="#E5E7EB"/>
<path d="M185.436 33.6772C185.237 33.5001 185.128 33.276 185.11 33.0047C185.091 32.7334 185.168 32.4964 185.34 32.2937L185.389 32.2357C185.561 32.033 185.78 31.9225 186.045 31.9042C186.309 31.8859 186.541 31.9652 186.74 32.1423L186.825 32.2182C187.023 32.3953 187.132 32.6195 187.15 32.8907C187.169 33.162 187.093 33.399 186.92 33.6018L186.871 33.6597C186.699 33.8624 186.48 33.9729 186.216 33.9912C185.951 34.0096 185.719 33.9302 185.521 33.7531L185.436 33.6772ZM177.849 42.6658C177.67 42.5056 177.572 42.3079 177.556 42.0728C177.539 41.8377 177.609 41.6284 177.765 41.445L183.042 35.233C183.198 35.0496 183.391 34.9499 183.62 34.934C183.858 34.9085 184.067 34.9759 184.246 35.1361C184.435 35.3047 184.538 35.5066 184.554 35.7417C184.57 35.9768 184.496 36.1909 184.332 36.384L179.055 42.596C178.899 42.7794 178.702 42.8748 178.463 42.8823C178.234 42.8982 178.029 42.826 177.849 42.6658Z" fill="#E5E7EB"/>
<path d="M181.408 45.9935C181.241 45.8197 181.159 45.6149 181.161 45.3792C181.164 45.1435 181.249 44.9404 181.419 44.7697L190.113 36.0248C190.282 35.8541 190.482 35.7698 190.712 35.772C190.951 35.7651 191.154 35.8486 191.32 36.0224C191.487 36.1962 191.565 36.4054 191.553 36.6501C191.56 36.8949 191.478 37.1027 191.309 37.2734L185.83 42.7844L191.905 43.0856C192.153 43.106 192.342 43.1848 192.474 43.322C192.675 43.5324 192.762 43.7417 192.733 43.95C192.713 44.1674 192.623 44.3569 192.462 44.5186C192.311 44.6713 192.084 44.7463 191.784 44.7435L188.163 44.5059L187.327 50.2232C187.298 50.4315 187.222 50.5985 187.097 50.7242C186.918 50.9039 186.718 50.9882 186.497 50.977C186.276 50.9659 186.078 50.8689 185.903 50.6859C185.815 50.5945 185.75 50.4805 185.707 50.3442C185.664 50.2078 185.652 50.0671 185.671 49.9223L186.545 44.4093L184.343 44.2801L182.615 46.0183C182.445 46.1889 182.241 46.2686 182.002 46.2574C181.772 46.2552 181.574 46.1673 181.408 45.9935Z" fill="#E5E7EB"/>
<path d="M190.458 56.5633C189.518 55.3366 189.123 54.1025 189.272 52.8608C189.439 51.6213 190.145 50.5013 191.388 49.5009C192.089 48.9371 192.835 48.5478 193.628 48.3328C194.42 48.1178 195.207 48.1349 195.988 48.3841C196.769 48.6333 197.464 49.155 198.073 49.9494C198.643 50.6934 198.963 51.4759 199.034 52.2967C199.114 53.1097 198.976 53.8872 198.619 54.6292C198.272 55.3633 197.763 56.0004 197.092 56.5403C196.905 56.6911 196.697 56.7528 196.468 56.7253C196.248 56.7079 196.056 56.5936 195.895 56.3824L191.977 51.2696C191.348 51.9058 191.011 52.6 190.965 53.352C190.919 54.1041 191.2 54.8773 191.809 55.6716C192.132 56.0939 192.453 56.4292 192.771 56.6774C193.096 56.9356 193.448 57.156 193.827 57.3385C193.929 57.3872 194.018 57.4618 194.095 57.5624C194.218 57.7233 194.272 57.9077 194.255 58.1157C194.239 58.3237 194.147 58.4952 193.98 58.6302C193.762 58.8048 193.48 58.821 193.131 58.6787C192.614 58.4612 192.154 58.2051 191.753 57.9104C191.352 57.6156 190.92 57.1666 190.458 56.5633ZM196.482 54.8375C196.942 54.4183 197.247 53.962 197.395 53.4687C197.551 52.9855 197.576 52.5184 197.47 52.0675C197.374 51.6087 197.195 51.2083 196.933 50.8664C196.671 50.5246 196.334 50.2513 195.922 50.0465C195.52 49.8338 195.071 49.7478 194.576 49.7886C194.08 49.8295 193.58 50.0293 193.073 50.3882L196.482 54.8375Z" fill="#E5E7EB"/>
<path d="M197.725 67.3565C197.616 67.142 197.597 66.9226 197.668 66.6982C197.738 66.4739 197.879 66.305 198.092 66.1916L208.431 60.6665C208.643 60.5531 208.859 60.531 209.079 60.6001C209.31 60.6633 209.481 60.8021 209.59 61.0166C209.699 61.2311 209.713 61.4535 209.631 61.6839C209.566 61.9195 209.428 62.0941 209.215 62.2075L204.758 64.5894L208.024 71.0073L212.481 68.6253C212.693 68.5119 212.909 68.4898 213.129 68.5589C213.36 68.6221 213.531 68.7609 213.64 68.9754C213.749 69.1899 213.763 69.4123 213.681 69.6427C213.616 69.8783 213.478 70.0528 213.265 70.1663L202.926 75.6913C202.714 75.8047 202.495 75.8212 202.269 75.7408C202.049 75.6716 201.885 75.5298 201.775 75.3153C201.666 75.1008 201.647 74.8814 201.718 74.657C201.788 74.4327 201.93 74.2638 202.142 74.1503L206.599 71.7684L203.333 65.3506L198.876 67.7325C198.664 67.8459 198.445 67.8624 198.219 67.782C197.999 67.7128 197.835 67.571 197.725 67.3565Z" fill="#E5E7EB"/>
<path d="M204.763 83.4288C204.442 82.5078 204.357 81.6286 204.508 80.7912C204.659 79.9538 205.025 79.2132 205.605 78.5694C206.202 77.9331 206.964 77.4453 207.892 77.1059C208.82 76.7666 209.705 76.6517 210.548 76.7615C211.407 76.8788 212.154 77.2126 212.788 77.7628C213.422 78.313 213.9 79.0486 214.22 79.9697C214.537 80.8788 214.62 81.752 214.469 82.5894C214.318 83.4268 213.947 84.1696 213.354 84.8178C212.774 85.4616 212.02 85.9532 211.092 86.2926C210.164 86.632 209.27 86.743 208.411 86.6256C207.564 86.5039 206.824 86.168 206.19 85.6178C205.555 85.0676 205.08 84.3379 204.763 83.4288ZM206.244 82.8871C206.415 83.3776 206.691 83.8027 207.071 84.1627C207.455 84.5345 207.941 84.7748 208.529 84.8835C209.121 85.0041 209.791 84.9274 210.541 84.6533C211.278 84.3835 211.839 84.0099 212.223 83.5325C212.61 83.067 212.832 82.5678 212.888 82.035C212.96 81.5097 212.91 81.0019 212.739 80.5114C212.564 80.009 212.285 79.5719 211.9 79.2C211.532 78.8357 211.054 78.5993 210.466 78.4906C209.879 78.3819 209.216 78.4624 208.478 78.7322C207.729 79.0063 207.16 79.3761 206.773 79.8416C206.385 80.3071 206.155 80.8024 206.083 81.3277C206.016 81.8649 206.069 82.3847 206.244 82.8871Z" fill="#E5E7EB"/>
<path d="M207.495 91.5285C207.452 91.2918 207.496 91.0768 207.628 90.8837C207.76 90.6905 207.944 90.5711 208.18 90.5255L216.183 88.9801C216.419 88.9345 216.633 88.9771 216.825 89.1078C217.029 89.2361 217.152 89.4187 217.196 89.6554C217.239 89.8921 217.189 90.1082 217.045 90.3038C216.915 90.5094 216.732 90.635 216.496 90.6806L215.731 90.8283C216.293 91.0811 216.78 91.4192 217.192 91.8426C217.607 92.2785 217.887 92.8888 218.031 93.6737C218.16 94.3713 218.083 95.0053 217.802 95.5757C217.52 96.146 217.131 96.5887 216.636 96.9038C218.059 97.4288 218.91 98.4513 219.189 99.9711C219.318 100.669 219.25 101.282 218.987 101.81C218.725 102.35 218.342 102.786 217.836 103.116C217.33 103.446 216.778 103.668 216.181 103.783L210.809 104.821C210.572 104.866 210.357 104.818 210.163 104.674C209.972 104.544 209.855 104.36 209.811 104.123C209.767 103.887 209.812 103.672 209.944 103.479C210.075 103.285 210.26 103.166 210.496 103.12L215.533 102.148C216.341 101.992 216.906 101.734 217.226 101.376C217.559 101.015 217.661 100.485 217.533 99.7878C217.416 99.1525 217.151 98.6554 216.737 98.2967C216.338 97.948 215.842 97.6634 215.247 97.4427L209.651 98.5234C209.414 98.569 209.199 98.5202 209.006 98.377C208.814 98.2463 208.697 98.0626 208.653 97.8259C208.61 97.5892 208.654 97.3742 208.786 97.1811C208.918 96.9879 209.102 96.8685 209.338 96.8229L214.375 95.8503C215.183 95.6942 215.748 95.4369 216.068 95.0783C216.401 94.7173 216.503 94.188 216.375 93.4904C216.258 92.8551 215.993 92.358 215.579 91.9993C215.18 91.6506 214.684 91.366 214.089 91.1453L208.493 92.2259C208.256 92.2716 208.041 92.2228 207.848 92.0796C207.656 91.9489 207.539 91.7652 207.495 91.5285Z" fill="#E5E7EB"/>
<path d="M210.153 112.792C210.1 111.247 210.494 110.023 211.338 109.117C212.194 108.224 213.42 107.749 215.015 107.691C215.913 107.659 216.748 107.793 217.519 108.095C218.29 108.396 218.921 108.88 219.413 109.547C219.905 110.213 220.169 111.047 220.203 112.047C220.236 112.984 220.042 113.802 219.623 114.502C219.216 115.201 218.651 115.741 217.93 116.122C217.22 116.503 216.435 116.709 215.574 116.74C215.334 116.749 215.129 116.674 214.958 116.515C214.788 116.369 214.699 116.163 214.69 115.897L214.467 109.46C213.585 109.594 212.906 109.948 212.432 110.523C211.957 111.098 211.738 111.885 211.772 112.885C211.79 113.417 211.857 113.877 211.972 114.266C212.087 114.667 212.246 115.054 212.449 115.427C212.503 115.527 212.533 115.64 212.537 115.766C212.544 115.969 212.481 116.149 212.347 116.306C212.213 116.462 212.038 116.545 211.823 116.553C211.544 116.563 211.304 116.407 211.103 116.084C210.808 115.601 210.582 115.121 210.426 114.645C210.27 114.169 210.179 113.551 210.153 112.792ZM216.066 115.011C216.685 114.95 217.198 114.767 217.606 114.461C218.014 114.167 218.306 113.808 218.481 113.383C218.669 112.958 218.756 112.53 218.741 112.1C218.726 111.67 218.61 111.249 218.393 110.839C218.189 110.428 217.873 110.091 217.446 109.827C217.019 109.564 216.494 109.425 215.872 109.409L216.066 115.011Z" fill="#E5E7EB"/>
<path d="M92.6771 69.672V89.832H86.1491V83.016H72.6131V110.472H97.1891V99.24H103.717V117H58.6931V110.472H64.7411V51.528H58.6931V45H103.717V62.76H97.1891V51.528H72.6131V76.488H86.1491V69.672H92.6771ZM163.236 51.528V110.472H169.284V117H149.508V110.472H155.364V83.016H128.676V110.472H134.532V117H114.756V110.472H120.804V51.528H114.756V45H134.532V51.528H128.676V76.584H155.364V51.528H149.508V45H169.284V51.528H163.236Z" fill="#E5E7EB"/>
</svg>
